/* XPM */
static char *b3e80ba074b942d7f4387b74ce519d86V5TuAaVjWX3kL5Nx[] = {
/* columns rows colors chars-per-pixel */
"35 35 5 1 ",
"  c #5A5A59",
". c #646463",
"X c #676767",
"o c gray43",
"O c gray54",
/* pixels */
"OOO.OOOOOOO.OOOOooO.OOOOOOO.OOOOooO",
"OOO.OOOOOOO.OOOOooO.OOOOOOO.OOOOooO",
"OOO.OOOOOOO.OOOOOOO.OOOOOOo.OOOOOOO",
"ooo ooooooo ooooooo ooooooo ooooooo",
"ooo ooooooo ooooooo ooooooo ooooooo",
"XXX XXXXXXX XXXXXXX XXXXXXX XXXXXXX",
"                                   ",
"OO OOOOO OOOOO OOOOOOO OOOO OOOOOO ",
"oo ooooo ooooo ooooooo oooo oooooo ",
"oo ooooo ooooo ooooooo oooo oooooo ",
"XX XXXXX XXXXX XXXXXXX XXXX XXXXXX ",
"                                   ",
"OOOOO OOOOOO OOOOOO OOOO OOOOOO OOO",
"ooooo oooooo oooooo oooo oooooo ooo",
"ooooo oooooo oooooo oooo oooooo ooo",
"XXXXX XXXXXX XXXXXX XXXX XXXXXX XXX",
"                                   ",
"OO OOOOOO OOOOOO OOOO OOOOO OOOOOO ",
"oo oooooo oooooo oooo ooooo oooooo ",
"oo oooooo oooooo oooo ooooo oooooo ",
"XX XXXXXX XXXXXX XXXX XXXXX XXXXXX ",
"                                   ",
"OOOOO OOOOOOO OOOOO OOOO OOOOO OOOO",
"ooooo ooooooo ooooo oooo ooooo oooo",
"ooooo ooooooo ooooo oooo ooooo oooo",
"XXXXX XXXXXXX XXXXX XXXX XXXXX XXXX",
"                                   ",
"OO OOOOOO OOOOOO OOOOO OOOO OOOOOO ",
"oo oooooo oooooo ooooo oooo oooooo ",
"oo oooooo oooooo ooooo oooo oooooo ",
"XX XXXXXX XXXXXX XXXXX XXXX XXXXXX ",
"                                   ",
"OOOOOOOOOOOOOOOOOOOOOOOOOOOOOOOOOOO",
"OOOOOOOOOOOOOOOOOOOOOOOOOOOOOOOOOOO",
"ooooooooooooooooooooooooooooooooooo"
};
